<svg width="66" height="40" viewBox="0 0 66 40" fill="none" xmlns="http://www.w3.org/2000/svg">
<path d="M55.3532 5.44096C57.4433 10.0865 55.3723 15.5444 50.7268 17.6345C50.6695 17.6612 50.6161 17.6841 50.5589 17.707C50.414 17.768 50.2691 17.829 50.1241 17.8938C44.998 20.2014 41.9201 25.1863 41.7942 30.4535C41.7904 30.4573 41.7904 30.4573 41.7904 30.4573C41.7866 30.648 41.7866 30.8426 41.7942 31.0371C41.7904 31.0409 41.7904 31.0409 41.7942 31.0447C41.6951 34.4621 39.6851 37.685 36.363 39.1801C31.7213 41.274 26.2596 39.1992 24.1657 34.5575C22.0794 29.9158 24.1504 24.4502 28.7921 22.3639C28.8455 22.3372 28.8989 22.3143 28.9523 22.2953C28.9943 22.2762 29.0362 22.2609 29.0782 22.2419C29.1812 22.1961 29.2841 22.1503 29.3871 22.1046C34.6009 19.7589 37.6979 14.6366 37.7208 9.27027C37.7208 9.23976 37.7208 9.20925 37.7208 9.18255C37.7361 5.68125 39.7575 2.34395 43.1597 0.814514C47.8052 -1.27559 53.2631 0.795444 55.3532 5.44096Z" fill="#222831"/>
<path d="M55.9215 39.9999C61.0149 39.9999 65.1439 35.8709 65.1439 30.7776C65.1439 25.6842 61.0149 21.5552 55.9215 21.5552C50.8281 21.5552 46.6991 25.6842 46.6991 30.7776C46.6991 35.8709 50.8281 39.9999 55.9215 39.9999Z" fill="#F0A500"/>
<path d="M31.9998 5.44218C34.0899 10.0877 32.0189 15.5456 27.3734 17.6357C27.3162 17.6624 27.2628 17.6853 27.2055 17.7082C27.0606 17.7692 26.9157 17.8302 26.7707 17.8951C21.6447 20.2026 18.5667 25.1875 18.4408 30.4548C18.437 30.4586 18.437 30.4586 18.437 30.4586C18.4332 30.6493 18.4332 30.8438 18.4408 31.0383C18.437 31.0421 18.437 31.0421 18.4408 31.0459C18.3417 34.4633 16.3317 37.6862 13.0096 39.1813C8.36793 41.2752 2.9062 39.2004 0.812289 34.5587C-1.274 29.917 0.797033 24.4514 5.43874 22.3651C5.49213 22.3384 5.54553 22.3156 5.59893 22.2965C5.64088 22.2774 5.68284 22.2622 5.72479 22.2431C5.82777 22.1973 5.93075 22.1516 6.03373 22.1058C11.2475 19.7601 14.3446 14.6379 14.3674 9.27149C14.3674 9.24098 14.3674 9.21047 14.3674 9.18377C14.3827 5.68247 16.4041 2.34517 19.8063 0.815735C24.4518 -1.27437 29.9097 0.796665 31.9998 5.44218Z" fill="#222831"/>
</svg>
